<?xml version="1.0" encoding="UTF-8"?><svg id="Layer_1" xmlns="http://www.w3.org/2000/svg" viewBox="0 0 363.89 375"><defs><style>.cls-1{fill:#f90;}.cls-2{fill-rule:evenodd;}</style></defs><path class="cls-1" d="M319.18,308.7c-154.78,73.66-250.84,12.03-312.33-25.4-3.8-2.36-10.27.55-4.66,7,20.49,24.84,87.62,84.71,175.25,84.71s139.86-47.85,146.38-56.19c6.48-8.28,1.9-12.84-4.65-10.11h0ZM362.65,284.69c-4.16-5.41-25.27-6.42-38.56-4.79-13.31,1.59-33.29,9.72-31.55,14.6.89,1.83,2.71,1.01,11.85.19,9.17-.91,34.85-4.16,40.21,2.84,5.38,7.05-8.19,40.61-10.67,46.02-2.39,5.41.91,6.81,5.41,3.2,4.44-3.6,12.47-12.94,17.86-26.14,5.35-13.28,8.62-31.8,5.46-35.92h0Z"/><path class="cls-2" d="M215.11,158.39c0,19.33.49,35.45-9.28,52.61-7.88,13.96-20.37,22.54-34.33,22.54-19.05,0-30.14-14.51-30.14-35.93,0-42.29,37.89-49.96,73.75-49.96v10.75ZM265.14,279.31c-3.28,2.93-8.02,3.14-11.72,1.19-16.47-13.68-19.4-20.02-28.47-33.07-27.21,27.77-46.47,36.07-81.78,36.07-41.73,0-74.24-25.75-74.24-77.31,0-40.26,21.84-67.68,52.89-81.08,26.93-11.86,64.54-13.96,93.29-17.23v-6.42c0-11.79.91-25.75-6-35.93-6.07-9.14-17.65-12.91-27.84-12.91-18.91,0-35.79,9.7-39.91,29.79-.84,4.47-4.12,8.86-8.58,9.07l-48.15-5.16c-4.05-.91-8.51-4.19-7.4-10.4C88.33,17.58,141.01,0,188.17,0c24.14,0,55.68,6.42,74.73,24.7,24.14,22.54,21.84,52.61,21.84,85.34v77.31c0,23.24,9.63,33.42,18.7,45.98,3.21,4.47,3.91,9.84-.14,13.19-10.12,8.44-28.12,24.14-38.03,32.94l-.14-.14"/><path class="cls-1" d="M319.18,308.7c-154.78,73.66-250.84,12.03-312.33-25.4-3.8-2.36-10.27.55-4.66,7,20.49,24.84,87.62,84.71,175.25,84.71s139.86-47.85,146.38-56.19c6.48-8.28,1.9-12.84-4.65-10.11h0ZM362.65,284.69c-4.16-5.41-25.27-6.42-38.56-4.79-13.31,1.59-33.29,9.72-31.55,14.6.89,1.83,2.71,1.01,11.85.19,9.17-.91,34.85-4.16,40.21,2.84,5.38,7.05-8.19,40.61-10.67,46.02-2.39,5.41.91,6.81,5.41,3.2,4.44-3.6,12.47-12.94,17.86-26.14,5.35-13.28,8.62-31.8,5.46-35.92h0Z"/><path class="cls-2" d="M215.11,158.39c0,19.33.49,35.45-9.28,52.61-7.88,13.96-20.37,22.54-34.33,22.54-19.05,0-30.14-14.51-30.14-35.93,0-42.29,37.89-49.96,73.75-49.96v10.75ZM265.14,279.31c-3.28,2.93-8.02,3.14-11.72,1.19-16.47-13.68-19.4-20.02-28.47-33.07-27.21,27.77-46.47,36.07-81.78,36.07-41.73,0-74.24-25.75-74.24-77.31,0-40.26,21.84-67.68,52.89-81.08,26.93-11.86,64.54-13.96,93.29-17.23v-6.42c0-11.79.91-25.75-6-35.93-6.07-9.14-17.65-12.91-27.84-12.91-18.91,0-35.79,9.7-39.91,29.79-.84,4.47-4.12,8.86-8.58,9.07l-48.15-5.16c-4.05-.91-8.51-4.19-7.4-10.4C88.33,17.58,141.01,0,188.17,0c24.14,0,55.68,6.42,74.73,24.7,24.14,22.54,21.84,52.61,21.84,85.34v77.31c0,23.24,9.63,33.42,18.7,45.98,3.21,4.47,3.91,9.84-.14,13.19-10.12,8.44-28.12,24.14-38.03,32.94l-.14-.14"/></svg>